<?xml version="1.0" standalone="no"?>
<!DOCTYPE svg PUBLIC "-//W3C//DTD SVG 20010904//EN"
 "http://www.w3.org/TR/2001/REC-SVG-20010904/DTD/svg10.dtd">
<svg version="1.0" xmlns="http://www.w3.org/2000/svg"
 width="200.000000pt" height="58.000000pt" viewBox="0 0 200.000000 58.000000"
 preserveAspectRatio="xMidYMid meet">

<g transform="translate(0.000000,58.000000) scale(0.100000,-0.100000)"
fill="#000000" stroke="none">
<path d="M604 514 c-13 -19 -19 -22 -26 -12 -6 10 -10 10 -18 -2 -5 -8 -10
-23 -10 -32 0 -10 -5 -17 -12 -15 -6 1 -16 -10 -21 -25 -20 -53 40 -102 74
-60 21 24 40 87 33 105 -3 8 -1 18 5 22 14 8 14 45 1 45 -5 0 -17 -12 -26 -26z
m-34 -98 c0 -7 -7 -21 -15 -32 -14 -18 -15 -18 -6 6 4 14 6 31 3 39 -3 8 0 11
7 7 6 -4 11 -13 11 -20z"/>
<path d="M674 366 c-76 -35 -105 -87 -66 -117 14 -11 15 -11 5 1 -8 9 -9 19
-2 31 13 25 109 89 132 89 16 0 14 -5 -12 -35 -17 -20 -31 -43 -31 -53 0 -11
13 -2 40 28 43 49 48 65 24 74 -25 10 -36 7 -90 -18z"/>
<path d="M1352 371 c-52 -18 -80 -36 -71 -45 2 -3 29 4 59 14 63 22 140 26
158 8 9 -9 12 -8 12 5 0 39 -73 48 -158 18z"/>
<path d="M1101 280 c-17 -28 -31 -56 -31 -63 0 -7 -5 -18 -12 -25 -6 -6 -9
-15 -5 -18 3 -4 14 8 24 26 10 18 35 54 56 81 32 42 35 49 18 49 -12 0 -30
-18 -50 -50z"/>
<path d="M759 281 c-19 -22 -41 -50 -48 -64 -18 -33 -11 -71 14 -75 15 -2 17
-1 6 6 -31 21 20 107 56 96 16 -5 16 -4 0 6 -18 11 -17 14 9 41 19 20 23 29
13 29 -8 0 -31 -18 -50 -39z"/>
<path d="M1414 271 c36 -8 51 -30 42 -65 -8 -33 -72 -65 -131 -66 -30 0 -36
-3 -25 -10 38 -25 142 6 174 51 25 36 21 74 -9 87 -14 7 -38 11 -53 11 l-27
-1 29 -7z"/>
<path d="M1326 261 c-4 -5 3 -7 14 -4 23 6 26 13 6 13 -8 0 -17 -4 -20 -9z"/>
<path d="M855 240 c3 -5 -4 -23 -16 -39 -12 -16 -19 -37 -16 -45 8 -21 27 -20
27 2 0 9 7 26 15 36 20 26 19 56 -1 56 -8 0 -12 -4 -9 -10z"/>
<path d="M991 224 c-17 -14 -31 -33 -31 -43 0 -22 19 -41 39 -40 11 0 12 2 4
6 -29 11 -3 67 42 91 20 11 20 11 -2 12 -12 0 -35 -12 -52 -26z"/>
<path d="M1165 240 c3 -5 -4 -23 -16 -39 -12 -16 -19 -37 -16 -45 8 -20 27
-21 27 -1 0 9 7 27 16 40 17 25 13 55 -6 55 -6 0 -8 -4 -5 -10z"/>
<path d="M1555 240 c3 -5 -4 -23 -16 -39 -12 -16 -19 -37 -16 -45 8 -21 27
-20 27 2 0 9 7 26 15 36 20 26 19 56 -1 56 -8 0 -12 -4 -9 -10z"/>
<path d="M1695 236 c-19 -14 -17 -15 28 -16 35 0 47 4 45 13 -7 18 -50 20 -73
3z"/>
<path d="M1843 244 c-28 -12 -11 -24 33 -24 32 0 44 4 42 13 -5 13 -54 20 -75
11z"/>
<path d="M911 211 c-12 -16 -21 -40 -21 -53 0 -19 5 -16 30 22 16 25 30 48 30
53 0 16 -20 5 -39 -22z"/>
<path d="M1611 211 c-12 -16 -21 -40 -21 -53 0 -19 5 -16 30 22 16 25 30 48
30 53 0 16 -20 5 -39 -22z"/>
<path d="M657 206 c7 -36 -43 -60 -114 -54 -49 4 -53 3 -38 -11 24 -24 107
-21 142 5 32 24 41 55 20 72 -12 10 -13 8 -10 -12z"/>
<path d="M1206 175 c-35 -67 -96 -124 -134 -126 -23 -2 -23 -2 -5 -6 32 -6 90
24 118 62 22 29 59 114 52 121 -1 2 -15 -22 -31 -51z"/>
<path d="M1680 181 c-10 -7 -1 -11 30 -13 41 -3 45 -6 50 -33 6 -29 6 -30 18
-8 15 28 15 28 -4 47 -17 17 -71 21 -94 7z"/>
<path d="M1825 180 c-15 -6 -8 -9 28 -9 52 -1 69 -19 49 -52 -19 -30 -13 -36
8 -10 36 43 20 82 -34 80 -17 0 -40 -4 -51 -9z"/>
<path d="M1633 107 c-40 -15 -78 -51 -69 -66 4 -6 22 -10 39 -10 24 1 26 3 10
6 -48 9 -11 46 67 67 49 13 51 15 20 15 -19 0 -50 -6 -67 -12z"/>
<path d="M1799 115 c-3 -2 -14 -6 -25 -8 -10 -1 -31 -11 -46 -21 -37 -24 -23
-57 25 -55 21 1 25 3 12 6 -55 13 -22 47 68 69 l52 12 -41 1 c-22 1 -43 -1
-45 -4z"/>
</g>
</svg>
